<?xml version="1.0" encoding="UTF-8"?><svg xmlns="http://www.w3.org/2000/svg" xmlns:xlink="http://www.w3.org/1999/xlink" xml:space="preserve" width="50" height="50" preserveAspectRatio="none" viewBox="0 0.15 14.15 14.15" > <g> <path d="M1.93,10.56c0.58-0.28,1.16-0.28,1.67-0.01C4.38,9.56,5.33,8.79,6.13,7.9C5.74,7.33,3.09,4.63,2.02,3.72 C1.7,4.06,1.38,4.41,1.06,4.75C1.02,4.71,0.97,4.68,0.93,4.64c0,0.2,0,0.4,0,0.61C1.26,5.58,1.6,5.92,1.97,6.29 c0.01,0.08,0.01,0.2,0.02,0.37c0.17,0.14,0.38,0.3,0.59,0.47C2.47,7.23,2.44,7.29,2.4,7.29c-0.72,0.01-1.43,0-2.18,0 c-0.13-0.43,0.15-0.71,0.31-1C0.4,5.92,0.36,5.48,0.12,5.21c-0.37-0.43,0.23-0.7,0.06-1.06c0.3-0.3,0.6-0.59,0.92-0.92 c0-0.48,0-0.98,0-1.51c0.53,0,1.03,0,1.53,0c0.52-0.65,1.1-1.1,2.02-0.86c0.21,0.14,0.47,0.32,0.74,0.5 c0.34-0.17,0.68-0.34,1.05-0.53c0,0.83,0,1.65,0,2.42C6.29,3.09,6.11,2.91,6,2.8c-0.26,0-0.38,0-0.5,0 C5.14,2.44,4.78,2.08,4.44,1.74C3.6,1.58,3.28,2.2,2.9,2.73C4.3,4.12,5.7,5.52,7.11,6.94c1.12-1.12,2.23-2.24,3.36-3.35 c0.2-0.2,0.43-0.36,0.69-0.58c0.26-0.43-0.32-0.65-0.38-1.04c-0.34-0.26-0.74-0.28-1.21-0.24c0,0.33,0,0.67,0,1.06 C9.15,2.83,9,2.53,8.83,2.34C8.4,1.86,8.01,1.36,7.57,0.82c1.12,0.06,2.23-0.15,3.29,0.13c0.5,0.59,1.2,0.97,1.24,1.8 c1.25,0.35,1.85,0.67,1.94,2.38c0.04,0.65,0.01,1.31,0.01,1.99c-0.41,0.03-0.52-0.31-0.74-0.47c-0.25-0.19-0.53-0.36-0.75-0.58 c-0.19-0.19-0.51-0.32-0.49-0.72c0.34,0,0.66,0,0.98,0c0.12-0.65,0.12-0.65-0.12-1.25c-0.36-0.16-0.71-0.31-1.13-0.49 c-0.05,0.17-0.04,0.3-0.11,0.36c-1.25,1.26-2.5,2.51-3.74,3.75C8.39,8.16,8.83,8.6,9.28,9.05c0.29-0.19,0.6-0.39,0.98-0.53 c0.41-0.15,0.79-0.12,1.23-0.16c0,0.31,0,0.59,0,0.89c-0.37,0-0.72,0-1.1,0c-0.28,0.21-0.57,0.42-0.86,0.62 c0.54-0.02,0.72,0.45,1.08,0.7c0.5-0.51,1.02-0.08,1.5-0.04c0.78,0.5,0.97,1.23,0.81,2.15c-0.21,0.26-0.46,0.58-0.69,0.86 c-1.45,0.31-1.45,0.31-2.48-0.74c-0.08-0.31-0.2-0.59-0.2-0.86c0-0.24,0.14-0.48,0.19-0.64C9.5,10.9,9.3,10.56,9.11,10.24 c-0.5,0.88-0.64,1.28-0.68,2.07c-0.2,0-0.4,0-0.62,0c-0.07-0.07-0.16-0.16-0.26-0.26c0.06-0.17,0.15-0.35,0.19-0.54 c0.03-0.17,0.01-0.36,0.01-0.46c0.2-0.38,0.37-0.7,0.49-0.94C7.81,9.68,7.4,9.27,6.93,8.8C6.9,8.82,6.74,8.94,6.6,9.07 c-0.56,0.55-1.1,1.11-1.66,1.65c-0.18,0.18-0.4,0.32-0.61,0.48c0.07,0.38,0.14,0.8,0.2,1.1c-0.2,0.39-0.34,0.66-0.5,0.98 c-0.26,0.14-0.56,0.29-0.99,0.51c-0.29-0.05-0.7-0.13-1.1-0.2c-0.55-0.38-0.85-0.89-0.84-1.54C1.1,11.43,1.38,10.9,1.93,10.56z M2.88,11.05c-0.63,0.14-0.96,0.47-1.08,1c0.29,0.72,0.29,0.72,1.05,1.03c0.21-0.11,0.46-0.24,0.67-0.35 c0.08-0.26,0.15-0.46,0.21-0.66c-0.06-0.19-0.13-0.4-0.21-0.65C3.33,11.31,3.11,11.19,2.88,11.05z M10.44,12.43 c0.22,0.22,0.41,0.41,0.6,0.6c0.02,0.02,0.05,0.02,0.07,0.03c0.77-0.17,1.13-0.49,1.13-1.08c-0.09-0.18-0.21-0.4-0.33-0.64 c-0.26-0.1-0.51-0.2-0.71-0.28c-0.29,0.27-0.52,0.49-0.77,0.73C10.44,11.96,10.44,12.17,10.44,12.43z"></path> </g> </svg>